<svg width="25" height="19" viewBox="0 0 25 19" fill="none" xmlns="http://www.w3.org/2000/svg">
<path d="M21.547 0.193359H2.86C2.10172 0.194154 1.37473 0.495732 0.838552 1.03191C0.30237 1.5681 0.000794145 2.29508 0 3.05336L0 15.2534C0.000794145 16.0116 0.30237 16.7386 0.838552 17.2748C1.37473 17.811 2.10172 18.1126 2.86 18.1134H21.547C22.3053 18.1126 23.0323 17.811 23.5684 17.2748C24.1046 16.7386 24.4062 16.0116 24.407 15.2534V3.05336C24.4062 2.29508 24.1046 1.5681 23.5684 1.03191C23.0323 0.495732 22.3053 0.194154 21.547 0.193359ZM22.5 15.2574C22.4995 15.51 22.3989 15.752 22.2203 15.9306C22.0417 16.1093 21.7996 16.2098 21.547 16.2104H2.86C2.60741 16.2098 2.36532 16.1093 2.18671 15.9306C2.0081 15.752 1.90753 15.51 1.907 15.2574V3.05336C1.90753 2.80077 2.0081 2.55868 2.18671 2.38007C2.36532 2.20147 2.60741 2.10089 2.86 2.10036H21.547C21.7996 2.10089 22.0417 2.20147 22.2203 2.38007C22.3989 2.55868 22.4995 2.80077 22.5 3.05336V15.2574Z" fill="#FF5E14"/>
<path d="M22.3389 1.38281L12.2039 8.92181L2.06891 1.38281L0.930908 2.91282L12.2039 11.2978L23.4769 2.91282L22.3389 1.38281Z" fill="#FF5E14"/>
</svg>
