<svg width="168" height="52" viewBox="0 0 168 52" fill="none" xmlns="http://www.w3.org/2000/svg">
<path d="M35.034 29.21C34.1196 27.0544 32.7248 25.1363 30.956 23.602C32.1734 22.185 33.068 20.5202 33.578 18.723C34.0565 16.7448 34.2766 14.7128 34.233 12.678C34.233 8.59901 32.922 5.468 30.009 3.278C27.1683 1.09333 23.0897 0.000666667 17.773 0H0.072998L0 27.676C2.331 27.603 17.162 27.624 21.531 27.534C24.183 27.479 29.068 29.767 29.059 36.124C29.059 39.256 28.185 41.586 26.364 43.189C24.616 44.645 21.848 45.447 18.135 45.447H6.99396V40.156H19.81C20.7308 40.156 21.6139 39.7902 22.2651 39.1391C22.9162 38.488 23.282 37.6048 23.282 36.684C23.282 35.7632 22.9162 34.8801 22.2651 34.2289C21.6139 33.5778 20.7308 33.212 19.81 33.212H0.0750122V51.201H18.428C24.182 51.201 28.628 49.963 31.683 47.486C34.815 44.937 36.344 41.368 36.344 36.853C36.4377 34.2423 35.9917 31.6404 35.034 29.21ZM24.765 19.232C23.165 20.47 20.614 21.125 17.265 21.125H6.99396V5.685H17.263C20.613 5.685 23.163 6.26799 24.763 7.57899C26.511 8.88999 27.312 10.779 27.312 13.405C27.312 16.031 26.512 17.921 24.764 19.232H24.765ZM22.425 13.405C22.4251 13.8314 22.3412 14.2536 22.1782 14.6475C22.0151 15.0414 21.776 15.3994 21.4746 15.7009C21.1732 16.0024 20.8153 16.2416 20.4214 16.4048C20.0275 16.568 19.6054 16.652 19.179 16.652H11.679V10.16H19.179C20.0397 10.1603 20.8651 10.5024 21.4736 11.1111C22.0822 11.7198 22.424 12.5453 22.424 13.406L22.425 13.405Z" fill="#FF5E14"/>
<path d="M47.2344 37.1797V45H45.8862V37.1797H47.2344ZM50.1749 40.4292V45H48.8805V39.1885H50.0997L50.1749 40.4292ZM49.944 41.8794L49.525 41.874C49.5286 41.4622 49.5859 41.0845 49.6969 40.7407C49.8115 40.397 49.969 40.1016 50.1696 39.8545C50.3737 39.6074 50.6172 39.4176 50.9 39.2852C51.1829 39.1491 51.498 39.0811 51.8454 39.0811C52.1246 39.0811 52.3771 39.1204 52.6027 39.1992C52.8318 39.2744 53.027 39.3979 53.1881 39.5698C53.3528 39.7417 53.4782 39.9655 53.5641 40.2412C53.65 40.5133 53.693 40.8481 53.693 41.2456V45H52.3932V41.2402C52.3932 40.9609 52.352 40.7407 52.2697 40.5796C52.1909 40.4149 52.0745 40.2985 51.9205 40.2305C51.7702 40.1589 51.5822 40.123 51.3566 40.123C51.1346 40.123 50.9358 40.1696 50.7604 40.2627C50.5849 40.3558 50.4363 40.4829 50.3146 40.644C50.1964 40.8052 50.1051 40.9914 50.0407 41.2026C49.9762 41.4139 49.944 41.6395 49.944 41.8794ZM56.8753 45H55.5808V38.6299C55.5808 38.1966 55.6614 37.8332 55.8225 37.5396C55.9873 37.2424 56.2218 37.0186 56.5262 36.8682C56.8305 36.7142 57.1904 36.6372 57.6057 36.6372C57.7346 36.6372 57.8618 36.6462 57.9871 36.6641C58.1124 36.6784 58.2342 36.7017 58.3523 36.7339L58.3201 37.7329C58.2485 37.715 58.1697 37.7025 58.0838 37.6953C58.0014 37.6882 57.9119 37.6846 57.8152 37.6846C57.6183 37.6846 57.4482 37.7222 57.305 37.7974C57.1653 37.869 57.0579 37.9746 56.9827 38.1143C56.9111 38.2539 56.8753 38.4258 56.8753 38.6299V45ZM58.073 39.1885V40.1338H54.6892V39.1885H58.073ZM58.8759 42.1587V42.0352C58.8759 41.6162 58.9368 41.2277 59.0585 40.8696C59.1803 40.508 59.3557 40.1947 59.5849 39.9297C59.8176 39.6611 60.1005 39.4535 60.4335 39.3066C60.7701 39.1562 61.1497 39.0811 61.5722 39.0811C61.9983 39.0811 62.3779 39.1562 62.7109 39.3066C63.0474 39.4535 63.3321 39.6611 63.5649 39.9297C63.7976 40.1947 63.9749 40.508 64.0966 40.8696C64.2183 41.2277 64.2792 41.6162 64.2792 42.0352V42.1587C64.2792 42.5776 64.2183 42.9661 64.0966 43.3242C63.9749 43.6823 63.7976 43.9956 63.5649 44.2642C63.3321 44.5291 63.0492 44.7368 62.7162 44.8872C62.3832 45.034 62.0055 45.1074 61.5829 45.1074C61.1568 45.1074 60.7755 45.034 60.4389 44.8872C60.1059 44.7368 59.823 44.5291 59.5903 44.2642C59.3575 43.9956 59.1803 43.6823 59.0585 43.3242C58.9368 42.9661 58.8759 42.5776 58.8759 42.1587ZM60.1703 42.0352V42.1587C60.1703 42.4201 60.1972 42.6672 60.2509 42.8999C60.3046 43.1326 60.3888 43.3368 60.5033 43.5122C60.6179 43.6877 60.7647 43.8255 60.9438 43.9258C61.1228 44.026 61.3359 44.0762 61.5829 44.0762C61.8228 44.0762 62.0305 44.026 62.206 43.9258C62.385 43.8255 62.5318 43.6877 62.6464 43.5122C62.761 43.3368 62.8451 43.1326 62.8988 42.8999C62.9561 42.6672 62.9848 42.4201 62.9848 42.1587V42.0352C62.9848 41.7773 62.9561 41.5339 62.8988 41.3047C62.8451 41.0719 62.7592 40.866 62.641 40.687C62.5265 40.508 62.3796 40.3683 62.2006 40.2681C62.0251 40.1642 61.8157 40.1123 61.5722 40.1123C61.3287 40.1123 61.1174 40.1642 60.9384 40.2681C60.7629 40.3683 60.6179 40.508 60.5033 40.687C60.3888 40.866 60.3046 41.0719 60.2509 41.3047C60.1972 41.5339 60.1703 41.7773 60.1703 42.0352ZM66.774 40.2949V45H65.4796V39.1885H66.7149L66.774 40.2949ZM68.5518 39.1509L68.5411 40.354C68.4623 40.3397 68.3764 40.3289 68.2833 40.3218C68.1937 40.3146 68.1042 40.311 68.0147 40.311C67.7927 40.311 67.5976 40.3433 67.4293 40.4077C67.261 40.4686 67.1195 40.5581 67.0049 40.6763C66.8939 40.7909 66.808 40.9305 66.7471 41.0952C66.6863 41.2599 66.6504 41.4443 66.6397 41.6484L66.3443 41.6699C66.3443 41.3047 66.3801 40.9663 66.4517 40.6548C66.5233 40.3433 66.6308 40.0693 66.774 39.833C66.9208 39.5967 67.1034 39.4123 67.3218 39.2798C67.5438 39.1473 67.7999 39.0811 68.0899 39.0811C68.1687 39.0811 68.2528 39.0882 68.3423 39.1025C68.4354 39.1169 68.5053 39.133 68.5518 39.1509ZM70.7673 40.3701V45H69.4729V39.1885H70.6921L70.7673 40.3701ZM70.5578 41.8794L70.1174 41.874C70.1174 41.473 70.1675 41.1024 70.2678 40.7622C70.368 40.422 70.5148 40.1266 70.7082 39.876C70.9016 39.6217 71.1415 39.4266 71.4279 39.2905C71.718 39.1509 72.0528 39.0811 72.4323 39.0811C72.6973 39.0811 72.939 39.1204 73.1574 39.1992C73.3794 39.2744 73.571 39.3944 73.7321 39.5591C73.8968 39.7238 74.0222 39.9351 74.1081 40.1929C74.1976 40.4507 74.2424 40.7622 74.2424 41.1274V45H72.9479V41.2402C72.9479 40.9574 72.905 40.7354 72.819 40.5742C72.7367 40.4131 72.6167 40.2985 72.4592 40.2305C72.3052 40.1589 72.1208 40.123 71.906 40.123C71.6625 40.123 71.4548 40.1696 71.2829 40.2627C71.1146 40.3558 70.9768 40.4829 70.8693 40.644C70.7619 40.8052 70.6831 40.9914 70.633 41.2026C70.5829 41.4139 70.5578 41.6395 70.5578 41.8794ZM74.1618 41.5356L73.5549 41.6699C73.5549 41.319 73.6032 40.9878 73.6999 40.6763C73.8002 40.3612 73.9452 40.0854 74.135 39.8491C74.3283 39.6092 74.5664 39.4212 74.8493 39.2852C75.1322 39.1491 75.4562 39.0811 75.8215 39.0811C76.1187 39.0811 76.3837 39.1222 76.6164 39.2046C76.8527 39.2834 77.0533 39.4087 77.218 39.5806C77.3827 39.7524 77.508 39.9762 77.5939 40.252C77.6799 40.5241 77.7229 40.8535 77.7229 41.2402V45H76.423V41.2349C76.423 40.9412 76.3801 40.7139 76.2941 40.5527C76.2118 40.3916 76.0936 40.2806 75.9396 40.2197C75.7857 40.1553 75.6013 40.123 75.3864 40.123C75.1859 40.123 75.0087 40.1606 74.8547 40.2358C74.7043 40.3075 74.5772 40.4095 74.4733 40.542C74.3695 40.6709 74.2907 40.8195 74.237 40.9878C74.1869 41.1561 74.1618 41.3387 74.1618 41.5356ZM82.4412 43.8345V41.063C82.4412 40.8553 82.4037 40.6763 82.3285 40.5259C82.2533 40.3755 82.1387 40.2591 81.9847 40.1768C81.8343 40.0944 81.6445 40.0532 81.4154 40.0532C81.2041 40.0532 81.0215 40.089 80.8675 40.1606C80.7135 40.2323 80.5936 40.3289 80.5077 40.4507C80.4217 40.5724 80.3787 40.7103 80.3787 40.8643H79.0897C79.0897 40.6351 79.1452 40.4131 79.2562 40.1982C79.3672 39.9834 79.5283 39.7918 79.7396 39.6235C79.9509 39.4552 80.2033 39.3228 80.4969 39.2261C80.7905 39.1294 81.12 39.0811 81.4852 39.0811C81.922 39.0811 82.3088 39.1545 82.6454 39.3013C82.9855 39.4481 83.2523 39.6701 83.4456 39.9673C83.6426 40.2609 83.7411 40.6297 83.7411 41.0737V43.6572C83.7411 43.9222 83.759 44.1603 83.7948 44.3716C83.8342 44.5793 83.8897 44.7601 83.9613 44.9141V45H82.6346C82.5737 44.8604 82.5254 44.6831 82.4896 44.4683C82.4574 44.2498 82.4412 44.0386 82.4412 43.8345ZM82.6292 41.4658L82.64 42.2661H81.7108C81.4709 42.2661 81.2596 42.2894 81.077 42.3359C80.8944 42.3789 80.7422 42.4434 80.6204 42.5293C80.4987 42.6152 80.4074 42.7191 80.3465 42.8408C80.2857 42.9626 80.2552 43.1004 80.2552 43.2544C80.2552 43.4084 80.291 43.5498 80.3626 43.6787C80.4343 43.804 80.5381 43.9025 80.6742 43.9741C80.8138 44.0457 80.9821 44.0815 81.179 44.0815C81.444 44.0815 81.675 44.0278 81.8719 43.9204C82.0724 43.8094 82.23 43.6751 82.3446 43.5176C82.4592 43.3564 82.52 43.2043 82.5272 43.061L82.9461 43.6357C82.9032 43.7826 82.8298 43.9401 82.7259 44.1084C82.6221 44.2767 82.486 44.4378 82.3177 44.5918C82.153 44.7422 81.9543 44.8657 81.7215 44.9624C81.4924 45.0591 81.2274 45.1074 80.9266 45.1074C80.547 45.1074 80.2087 45.0322 79.9115 44.8818C79.6143 44.7279 79.3815 44.522 79.2132 44.2642C79.0449 44.0028 78.9608 43.7074 78.9608 43.3779C78.9608 43.07 79.0181 42.7979 79.1327 42.5615C79.2508 42.3216 79.4227 42.1211 79.6483 41.96C79.8774 41.7988 80.1567 41.6771 80.4862 41.5947C80.8156 41.5088 81.1916 41.4658 81.6141 41.4658H82.6292ZM87.8686 39.1885V40.1338H84.5923V39.1885H87.8686ZM85.5376 37.7651H86.832V43.394C86.832 43.5731 86.8571 43.7109 86.9072 43.8076C86.9609 43.9007 87.0343 43.9634 87.1274 43.9956C87.2205 44.0278 87.3297 44.0439 87.4551 44.0439C87.5446 44.0439 87.6305 44.0386 87.7129 44.0278C87.7952 44.0171 87.8615 44.0063 87.9116 43.9956L87.917 44.9839C87.8096 45.0161 87.6842 45.0448 87.541 45.0698C87.4013 45.0949 87.2402 45.1074 87.0576 45.1074C86.7604 45.1074 86.4972 45.0555 86.268 44.9517C86.0389 44.8442 85.8598 44.6706 85.7309 44.4307C85.602 44.1908 85.5376 43.8721 85.5376 43.4746V37.7651ZM90.3634 39.1885V45H89.0636V39.1885H90.3634ZM88.9777 37.6631C88.9777 37.4661 89.0421 37.3032 89.171 37.1743C89.3035 37.0418 89.4861 36.9756 89.7189 36.9756C89.948 36.9756 90.1289 37.0418 90.2613 37.1743C90.3938 37.3032 90.4601 37.4661 90.4601 37.6631C90.4601 37.8564 90.3938 38.0176 90.2613 38.1465C90.1289 38.2754 89.948 38.3398 89.7189 38.3398C89.4861 38.3398 89.3035 38.2754 89.171 38.1465C89.0421 38.0176 88.9777 37.8564 88.9777 37.6631ZM91.6443 42.1587V42.0352C91.6443 41.6162 91.7052 41.2277 91.8269 40.8696C91.9487 40.508 92.1241 40.1947 92.3533 39.9297C92.586 39.6611 92.8689 39.4535 93.2019 39.3066C93.5385 39.1562 93.9181 39.0811 94.3406 39.0811C94.7667 39.0811 95.1463 39.1562 95.4793 39.3066C95.8158 39.4535 96.1005 39.6611 96.3333 39.9297C96.566 40.1947 96.7433 40.508 96.865 40.8696C96.9867 41.2277 97.0476 41.6162 97.0476 42.0352V42.1587C97.0476 42.5776 96.9867 42.9661 96.865 43.3242C96.7433 43.6823 96.566 43.9956 96.3333 44.2642C96.1005 44.5291 95.8176 44.7368 95.4846 44.8872C95.1516 45.034 94.7739 45.1074 94.3513 45.1074C93.9252 45.1074 93.5439 45.034 93.2073 44.8872C92.8743 44.7368 92.5914 44.5291 92.3587 44.2642C92.1259 43.9956 91.9487 43.6823 91.8269 43.3242C91.7052 42.9661 91.6443 42.5776 91.6443 42.1587ZM92.9387 42.0352V42.1587C92.9387 42.4201 92.9656 42.6672 93.0193 42.8999C93.073 43.1326 93.1572 43.3368 93.2717 43.5122C93.3863 43.6877 93.5331 43.8255 93.7122 43.9258C93.8912 44.026 94.1043 44.0762 94.3513 44.0762C94.5912 44.0762 94.7989 44.026 94.9744 43.9258C95.1534 43.8255 95.3002 43.6877 95.4148 43.5122C95.5294 43.3368 95.6135 43.1326 95.6672 42.8999C95.7245 42.6672 95.7532 42.4201 95.7532 42.1587V42.0352C95.7532 41.7773 95.7245 41.5339 95.6672 41.3047C95.6135 41.0719 95.5276 40.866 95.4094 40.687C95.2949 40.508 95.148 40.3683 94.969 40.2681C94.7935 40.1642 94.5841 40.1123 94.3406 40.1123C94.0971 40.1123 93.8858 40.1642 93.7068 40.2681C93.5313 40.3683 93.3863 40.508 93.2717 40.687C93.1572 40.866 93.073 41.0719 93.0193 41.3047C92.9656 41.5339 92.9387 41.7773 92.9387 42.0352ZM99.5263 40.4292V45H98.2318V39.1885H99.4511L99.5263 40.4292ZM99.2953 41.8794L98.8764 41.874C98.8799 41.4622 98.9372 41.0845 99.0482 40.7407C99.1628 40.397 99.3204 40.1016 99.5209 39.8545C99.725 39.6074 99.9685 39.4176 100.251 39.2852C100.534 39.1491 100.849 39.0811 101.197 39.0811C101.476 39.0811 101.728 39.1204 101.954 39.1992C102.183 39.2744 102.378 39.3979 102.539 39.5698C102.704 39.7417 102.829 39.9655 102.915 40.2412C103.001 40.5133 103.044 40.8481 103.044 41.2456V45H101.745V41.2402C101.745 40.9609 101.703 40.7407 101.621 40.5796C101.542 40.4149 101.426 40.2985 101.272 40.2305C101.121 40.1589 100.933 40.123 100.708 40.123C100.486 40.123 100.287 40.1696 100.112 40.2627C99.9363 40.3558 99.7877 40.4829 99.6659 40.644C99.5478 40.8052 99.4564 40.9914 99.392 41.2026C99.3275 41.4139 99.2953 41.6395 99.2953 41.8794ZM110.561 37.1797V45H109.224V37.1797H110.561ZM113.016 37.1797V38.2539H106.791V37.1797H113.016ZM116.074 45.1074C115.645 45.1074 115.256 45.0376 114.909 44.8979C114.565 44.7547 114.271 44.556 114.028 44.3018C113.788 44.0475 113.604 43.7485 113.475 43.4048C113.346 43.061 113.281 42.6904 113.281 42.293V42.0781C113.281 41.6234 113.348 41.2116 113.48 40.8428C113.613 40.474 113.797 40.1589 114.033 39.8975C114.27 39.6325 114.549 39.4302 114.871 39.2905C115.194 39.1509 115.543 39.0811 115.919 39.0811C116.334 39.0811 116.697 39.1509 117.009 39.2905C117.32 39.4302 117.578 39.6271 117.782 39.8813C117.99 40.132 118.144 40.431 118.244 40.7783C118.348 41.1257 118.4 41.5088 118.4 41.9277V42.481H113.91V41.5518H117.122V41.4497C117.115 41.217 117.068 40.9985 116.982 40.7944C116.9 40.5903 116.773 40.4256 116.601 40.3003C116.429 40.175 116.2 40.1123 115.913 40.1123C115.698 40.1123 115.507 40.1589 115.339 40.252C115.174 40.3415 115.036 40.4722 114.925 40.644C114.814 40.8159 114.728 41.0236 114.667 41.2671C114.61 41.507 114.581 41.7773 114.581 42.0781V42.293C114.581 42.5472 114.615 42.7835 114.683 43.002C114.755 43.2168 114.859 43.4048 114.995 43.5659C115.131 43.7271 115.296 43.8542 115.489 43.9473C115.682 44.0368 115.903 44.0815 116.15 44.0815C116.461 44.0815 116.739 44.0189 116.982 43.8936C117.226 43.7682 117.437 43.591 117.616 43.3618L118.298 44.0225C118.173 44.2051 118.01 44.3805 117.809 44.5488C117.609 44.7135 117.363 44.8478 117.073 44.9517C116.787 45.0555 116.454 45.1074 116.074 45.1074ZM121.894 44.0762C122.105 44.0762 122.295 44.035 122.463 43.9526C122.635 43.8667 122.773 43.7485 122.877 43.5981C122.984 43.4478 123.043 43.2741 123.054 43.0771H124.273C124.266 43.4531 124.155 43.7951 123.94 44.103C123.725 44.411 123.441 44.6562 123.086 44.8389C122.732 45.0179 122.34 45.1074 121.91 45.1074C121.466 45.1074 121.079 45.0322 120.75 44.8818C120.42 44.7279 120.146 44.5166 119.928 44.248C119.71 43.9795 119.545 43.6698 119.434 43.3188C119.326 42.9679 119.273 42.592 119.273 42.1909V42.0029C119.273 41.6019 119.326 41.2259 119.434 40.875C119.545 40.5205 119.71 40.209 119.928 39.9404C120.146 39.6719 120.42 39.4624 120.75 39.312C121.079 39.158 121.464 39.0811 121.905 39.0811C122.37 39.0811 122.778 39.1742 123.129 39.3604C123.48 39.543 123.756 39.799 123.956 40.1284C124.16 40.4543 124.266 40.8338 124.273 41.2671H123.054C123.043 41.0522 122.99 40.8589 122.893 40.687C122.8 40.5116 122.667 40.3719 122.495 40.2681C122.327 40.1642 122.125 40.1123 121.888 40.1123C121.627 40.1123 121.41 40.166 121.239 40.2734C121.067 40.3773 120.932 40.5205 120.836 40.7031C120.739 40.8822 120.669 41.0845 120.626 41.3101C120.587 41.5321 120.567 41.763 120.567 42.0029V42.1909C120.567 42.4308 120.587 42.6636 120.626 42.8892C120.666 43.1147 120.734 43.3171 120.83 43.4961C120.931 43.6715 121.067 43.813 121.239 43.9204C121.41 44.0243 121.629 44.0762 121.894 44.0762ZM126.655 36.75V45H125.366V36.75H126.655ZM126.43 41.8794L126.011 41.874C126.014 41.473 126.07 41.1024 126.177 40.7622C126.288 40.422 126.442 40.1266 126.639 39.876C126.84 39.6217 127.08 39.4266 127.359 39.2905C127.638 39.1509 127.948 39.0811 128.288 39.0811C128.575 39.0811 128.832 39.1204 129.061 39.1992C129.294 39.278 129.495 39.4051 129.663 39.5806C129.831 39.7524 129.958 39.978 130.044 40.2573C130.134 40.533 130.179 40.8696 130.179 41.2671V45H128.879V41.2563C128.879 40.9771 128.838 40.755 128.755 40.5903C128.677 40.4256 128.56 40.3075 128.406 40.2358C128.252 40.1606 128.064 40.123 127.842 40.123C127.609 40.123 127.404 40.1696 127.225 40.2627C127.049 40.3558 126.902 40.4829 126.784 40.644C126.666 40.8052 126.576 40.9914 126.516 41.2026C126.458 41.4139 126.43 41.6395 126.43 41.8794ZM132.883 40.4292V45H131.588V39.1885H132.808L132.883 40.4292ZM132.652 41.8794L132.233 41.874C132.237 41.4622 132.294 41.0845 132.405 40.7407C132.519 40.397 132.677 40.1016 132.878 39.8545C133.082 39.6074 133.325 39.4176 133.608 39.2852C133.891 39.1491 134.206 39.0811 134.553 39.0811C134.833 39.0811 135.085 39.1204 135.311 39.1992C135.54 39.2744 135.735 39.3979 135.896 39.5698C136.061 39.7417 136.186 39.9655 136.272 40.2412C136.358 40.5133 136.401 40.8481 136.401 41.2456V45H135.101V41.2402C135.101 40.9609 135.06 40.7407 134.978 40.5796C134.899 40.4149 134.782 40.2985 134.629 40.2305C134.478 40.1589 134.29 40.123 134.065 40.123C133.843 40.123 133.644 40.1696 133.468 40.2627C133.293 40.3558 133.144 40.4829 133.023 40.644C132.904 40.8052 132.813 40.9914 132.749 41.2026C132.684 41.4139 132.652 41.6395 132.652 41.8794ZM137.585 42.1587V42.0352C137.585 41.6162 137.646 41.2277 137.768 40.8696C137.89 40.508 138.065 40.1947 138.294 39.9297C138.527 39.6611 138.81 39.4535 139.143 39.3066C139.479 39.1562 139.859 39.0811 140.281 39.0811C140.708 39.0811 141.087 39.1562 141.42 39.3066C141.757 39.4535 142.041 39.6611 142.274 39.9297C142.507 40.1947 142.684 40.508 142.806 40.8696C142.928 41.2277 142.989 41.6162 142.989 42.0352V42.1587C142.989 42.5776 142.928 42.9661 142.806 43.3242C142.684 43.6823 142.507 43.9956 142.274 44.2642C142.041 44.5291 141.759 44.7368 141.426 44.8872C141.093 45.034 140.715 45.1074 140.292 45.1074C139.866 45.1074 139.485 45.034 139.148 44.8872C138.815 44.7368 138.532 44.5291 138.3 44.2642C138.067 43.9956 137.89 43.6823 137.768 43.3242C137.646 42.9661 137.585 42.5776 137.585 42.1587ZM138.88 42.0352V42.1587C138.88 42.4201 138.906 42.6672 138.96 42.8999C139.014 43.1326 139.098 43.3368 139.213 43.5122C139.327 43.6877 139.474 43.8255 139.653 43.9258C139.832 44.026 140.045 44.0762 140.292 44.0762C140.532 44.0762 140.74 44.026 140.915 43.9258C141.094 43.8255 141.241 43.6877 141.356 43.5122C141.47 43.3368 141.554 43.1326 141.608 42.8999C141.665 42.6672 141.694 42.4201 141.694 42.1587V42.0352C141.694 41.7773 141.665 41.5339 141.608 41.3047C141.554 41.0719 141.468 40.866 141.35 40.687C141.236 40.508 141.089 40.3683 140.91 40.2681C140.734 40.1642 140.525 40.1123 140.281 40.1123C140.038 40.1123 139.827 40.1642 139.648 40.2681C139.472 40.3683 139.327 40.508 139.213 40.687C139.098 40.866 139.014 41.0719 138.96 41.3047C138.906 41.5339 138.88 41.7773 138.88 42.0352ZM145.569 36.75V45H144.269V36.75H145.569ZM146.85 42.1587V42.0352C146.85 41.6162 146.911 41.2277 147.033 40.8696C147.154 40.508 147.33 40.1947 147.559 39.9297C147.792 39.6611 148.075 39.4535 148.408 39.3066C148.744 39.1562 149.124 39.0811 149.546 39.0811C149.973 39.0811 150.352 39.1562 150.685 39.3066C151.022 39.4535 151.306 39.6611 151.539 39.9297C151.772 40.1947 151.949 40.508 152.071 40.8696C152.193 41.2277 152.253 41.6162 152.253 42.0352V42.1587C152.253 42.5776 152.193 42.9661 152.071 43.3242C151.949 43.6823 151.772 43.9956 151.539 44.2642C151.306 44.5291 151.023 44.7368 150.69 44.8872C150.357 45.034 149.98 45.1074 149.557 45.1074C149.131 45.1074 148.75 45.034 148.413 44.8872C148.08 44.7368 147.797 44.5291 147.564 44.2642C147.332 43.9956 147.154 43.6823 147.033 43.3242C146.911 42.9661 146.85 42.5776 146.85 42.1587ZM148.145 42.0352V42.1587C148.145 42.4201 148.171 42.6672 148.225 42.8999C148.279 43.1326 148.363 43.3368 148.478 43.5122C148.592 43.6877 148.739 43.8255 148.918 43.9258C149.097 44.026 149.31 44.0762 149.557 44.0762C149.797 44.0762 150.005 44.026 150.18 43.9258C150.359 43.8255 150.506 43.6877 150.621 43.5122C150.735 43.3368 150.819 43.1326 150.873 42.8999C150.93 42.6672 150.959 42.4201 150.959 42.1587V42.0352C150.959 41.7773 150.93 41.5339 150.873 41.3047C150.819 41.0719 150.733 40.866 150.615 40.687C150.501 40.508 150.354 40.3683 150.175 40.2681C149.999 40.1642 149.79 40.1123 149.546 40.1123C149.303 40.1123 149.092 40.1642 148.913 40.2681C148.737 40.3683 148.592 40.508 148.478 40.687C148.363 40.866 148.279 41.0719 148.225 41.3047C148.171 41.5339 148.145 41.7773 148.145 42.0352ZM157.171 39.1885H158.347V44.8389C158.347 45.3617 158.236 45.8057 158.014 46.1709C157.792 46.5361 157.482 46.8136 157.085 47.0034C156.687 47.1968 156.227 47.2935 155.704 47.2935C155.482 47.2935 155.235 47.2612 154.963 47.1968C154.694 47.1323 154.433 47.0285 154.179 46.8853C153.928 46.7456 153.719 46.5612 153.55 46.332L154.157 45.5693C154.365 45.8164 154.594 45.9972 154.845 46.1118C155.096 46.2264 155.359 46.2837 155.634 46.2837C155.932 46.2837 156.184 46.2282 156.392 46.1172C156.603 46.0098 156.766 45.8504 156.881 45.6392C156.995 45.4279 157.052 45.1701 157.052 44.8657V40.5044L157.171 39.1885ZM153.223 42.1587V42.0459C153.223 41.6055 153.277 41.2044 153.384 40.8428C153.491 40.4775 153.645 40.1642 153.846 39.9028C154.046 39.6379 154.29 39.4355 154.576 39.2959C154.863 39.1527 155.187 39.0811 155.548 39.0811C155.924 39.0811 156.245 39.1491 156.51 39.2852C156.778 39.4212 157.002 39.6164 157.181 39.8706C157.36 40.1213 157.5 40.422 157.6 40.7729C157.704 41.1203 157.781 41.507 157.831 41.9331V42.293C157.785 42.7083 157.706 43.0879 157.595 43.4316C157.484 43.7754 157.337 44.0726 157.154 44.3232C156.972 44.5739 156.746 44.7673 156.478 44.9033C156.213 45.0394 155.899 45.1074 155.538 45.1074C155.183 45.1074 154.863 45.034 154.576 44.8872C154.293 44.7404 154.05 44.5345 153.846 44.2695C153.645 44.0046 153.491 43.693 153.384 43.335C153.277 42.9733 153.223 42.5812 153.223 42.1587ZM154.517 42.0459V42.1587C154.517 42.4237 154.542 42.6707 154.592 42.8999C154.646 43.1291 154.727 43.3314 154.834 43.5068C154.945 43.6787 155.085 43.8148 155.253 43.915C155.425 44.0117 155.627 44.0601 155.86 44.0601C156.164 44.0601 156.413 43.9956 156.607 43.8667C156.804 43.7378 156.954 43.5641 157.058 43.3457C157.165 43.1237 157.24 42.8766 157.283 42.6045V41.6323C157.262 41.4211 157.217 41.2241 157.149 41.0415C157.085 40.8589 156.997 40.6995 156.886 40.5635C156.775 40.4238 156.635 40.3164 156.467 40.2412C156.299 40.1624 156.1 40.123 155.871 40.123C155.638 40.123 155.436 40.1732 155.264 40.2734C155.092 40.3737 154.951 40.5116 154.84 40.687C154.732 40.8625 154.652 41.0666 154.598 41.2993C154.544 41.5321 154.517 41.7809 154.517 42.0459ZM161.486 44.3662L163.065 39.1885H164.451L162.12 45.8862C162.066 46.0295 161.996 46.1852 161.91 46.3535C161.825 46.5218 161.712 46.6812 161.572 46.8315C161.436 46.9855 161.266 47.109 161.062 47.2021C160.858 47.2988 160.611 47.3472 160.321 47.3472C160.206 47.3472 160.095 47.3364 159.988 47.3149C159.884 47.297 159.785 47.2773 159.692 47.2559L159.687 46.2676C159.723 46.2712 159.766 46.2747 159.816 46.2783C159.869 46.2819 159.912 46.2837 159.945 46.2837C160.159 46.2837 160.339 46.2568 160.482 46.2031C160.625 46.153 160.741 46.0706 160.831 45.9561C160.924 45.8415 161.003 45.6875 161.067 45.4941L161.486 44.3662ZM160.595 39.1885L161.975 43.5391L162.206 44.9033L161.309 45.1343L159.198 39.1885H160.595Z" fill="white"/>
<path d="M59.071 18.8861C62.23 18.5921 63.515 16.7191 63.515 13.0861C63.515 7.87013 61.164 6.47513 54.553 6.47513C50.292 6.47513 47.905 6.51213 45.04 6.76913V32.1131C48.24 32.3701 50.88 32.4071 55.728 32.4071C61.788 32.4071 64.323 31.0071 64.323 25.7961C64.323 21.7561 62.964 19.3681 59.071 19.0381V18.8861ZM58.153 13.8541C58.153 16.4621 57.308 17.1231 54.59 17.1231H50.513V10.6951H54.296C57.234 10.6961 58.153 11.2831 58.153 13.8541ZM50.513 28.1791V20.8331H54.627C57.786 20.8701 58.704 21.6411 58.704 24.7261C58.704 27.5541 57.822 28.1791 54.774 28.1791H50.513ZM88.528 6.76213H82.908V22.0051C82.908 26.6701 81.769 28.0651 78.39 28.0651C74.937 28.0651 73.835 26.6651 73.835 22.0051V6.76213H68.253V22.0051C68.253 29.7551 71.008 32.5831 78.648 32.5831C85.884 32.5831 88.528 29.7551 88.528 22.0051V6.76213ZM101.68 6.28814C95.142 6.28814 92.461 7.50013 92.461 13.3031C92.461 17.0491 93.861 19.3271 97.713 20.7221L102.818 22.5221C104.508 23.0731 105.205 23.5141 105.205 25.3131C105.205 27.3701 104.397 27.7741 101.459 27.7741C99.843 27.7741 97.786 27.7011 93.085 27.5901L92.754 31.6301C95.6124 32.2536 98.5285 32.5737 101.454 32.5851C108.359 32.5851 110.854 31.0421 110.854 25.2761C110.854 21.5661 109.532 19.2521 105.491 17.8201L100.679 16.1671C98.769 15.5431 98.034 15.0671 98.034 13.3021C98.034 11.1351 98.989 10.9881 101.707 10.9881C104.388 10.9881 107.507 11.0251 109.641 11.0981L110.008 7.27813C107.29 6.57101 104.488 6.23794 101.68 6.28814ZM120.41 32.1091V6.76213H114.827V32.1061L120.41 32.1091ZM135.359 6.32513C127.536 6.32513 124.707 9.77813 124.707 19.4381C124.707 29.0981 127.535 32.5511 135.359 32.5511C138.103 32.6576 140.845 32.3103 143.476 31.5231L142.999 27.3731C140.463 27.6567 137.91 27.7673 135.359 27.7041C131.686 27.7041 130.584 25.8311 130.584 19.4401C130.584 13.0491 131.684 11.1761 135.359 11.1761C138.559 11.1761 140.097 11.2131 142.485 11.3601L142.962 7.17313C140.481 6.52834 137.921 6.24277 135.359 6.32513ZM156.699 6.28814C148.692 6.28814 145.864 9.26313 145.864 19.4371C145.864 29.6111 148.692 32.5861 156.699 32.5861C164.706 32.5861 167.571 29.6111 167.571 19.4371C167.571 9.26313 164.706 6.28814 156.699 6.28814ZM156.699 10.8061C160.519 10.8061 161.658 12.7161 161.658 19.4381C161.658 26.1601 160.519 28.0701 156.699 28.0701C152.879 28.0701 151.74 26.1601 151.74 19.4381C151.74 12.7161 152.88 10.8061 156.699 10.8061Z" fill="white"/>
</svg>
