<svg width="60" height="60" viewBox="0 0 60 60" fill="none" xmlns="http://www.w3.org/2000/svg">
<rect x="0.5" y="0.5" width="59" height="59" rx="9.5" stroke="#FFBB00" stroke-opacity="0.3"/>
<path d="M48.4832 36.2208C49.1492 35.6355 49.6117 34.8535 49.8038 33.9879C49.9959 33.1223 49.9076 32.218 49.5517 31.4059C49.1958 30.5938 48.5907 29.916 47.824 29.4706C47.0574 29.0252 46.1689 28.8352 45.2871 28.9283C44.4053 29.0213 43.576 29.3925 42.9192 29.9881C42.2624 30.5837 41.8121 31.3728 41.6335 32.2413C41.4548 33.1098 41.5572 34.0125 41.9257 34.819C42.2942 35.6255 42.9097 36.2938 43.6832 36.7272C42.9801 37.175 42.3895 37.7787 41.9574 38.4915C41.5252 39.2044 41.2631 40.0071 41.1912 40.8376L40.9104 44.232H37.368C36.8136 44.232 36.2819 44.4523 35.8899 44.8443C35.4978 45.2363 35.2776 45.768 35.2776 46.3224C35.2776 46.8768 35.4978 47.4085 35.8899 47.8006C36.2819 48.1926 36.8136 48.4128 37.368 48.4128H40.1576V51.2H51.9976V41.284C51.996 40.1829 51.6587 39.1084 51.0308 38.2038C50.4029 37.2992 49.5142 36.6074 48.4832 36.2208ZM45.7288 30.3008C46.28 30.3008 46.8189 30.4643 47.2773 30.7705C47.7356 31.0768 48.0929 31.5121 48.3038 32.0214C48.5148 32.5307 48.57 33.0911 48.4624 33.6318C48.3549 34.1724 48.0894 34.6691 47.6996 35.0589C47.3098 35.4487 46.8132 35.7141 46.2725 35.8217C45.7319 35.9292 45.1715 35.874 44.6622 35.6631C44.1529 35.4521 43.7176 35.0949 43.4113 34.6365C43.1051 34.1781 42.9416 33.6393 42.9416 33.088C42.9414 32.7217 43.0133 32.3589 43.1533 32.0204C43.2933 31.6818 43.4986 31.3742 43.7575 31.115C44.0164 30.8558 44.3238 30.6502 44.6622 30.5098C45.0005 30.3694 45.3633 30.297 45.7296 30.2968L45.7288 30.3008ZM50.6088 49.8104H41.5488V48.4128H41.7888C42.6593 48.417 43.4995 48.0935 44.1424 47.5065C44.7852 46.9195 45.1836 46.1121 45.2584 45.2448L45.7248 40.1152L44.3368 39.9888L43.8704 45.1184C43.8254 45.6384 43.5866 46.1226 43.2013 46.4747C42.816 46.8268 42.3123 47.0212 41.7904 47.0192H37.368C37.1832 47.0192 37.0059 46.9458 36.8753 46.8151C36.7446 46.6845 36.6712 46.5072 36.6712 46.3224C36.6712 46.1376 36.7446 45.9604 36.8753 45.8297C37.0059 45.699 37.1832 45.6256 37.368 45.6256H40.9128C41.2618 45.6268 41.5984 45.4965 41.8557 45.2606C42.1129 45.0247 42.2718 44.7006 42.3008 44.3528L42.5824 40.9528C42.6677 39.9188 43.1495 38.9579 43.927 38.271C44.7045 37.5841 45.7175 37.2245 46.7541 37.2674C47.7907 37.3103 48.7706 37.7524 49.4887 38.5011C50.2068 39.2499 50.6076 40.2473 50.6072 41.2848L50.6088 49.8104Z" fill="#FFBB00"/>
<path d="M23.432 44.232L19.888 44.2376L19.6064 40.8376C19.5343 40.0072 19.272 39.2045 18.8399 38.4917C18.4077 37.779 17.8174 37.1752 17.1144 36.7272C17.8899 36.2937 18.5073 35.6247 18.8772 34.8169C19.2471 34.0092 19.3502 33.1047 19.1717 32.2344C18.9932 31.3641 18.5424 30.5732 17.8844 29.9763C17.2264 29.3793 16.3955 29.0073 15.512 28.9141C14.6285 28.8209 13.7383 29.0113 12.9702 29.4578C12.2022 29.9043 11.5962 30.5837 11.24 31.3976C10.8838 32.2115 10.796 33.1176 10.9891 33.9847C11.1823 34.8519 11.6465 35.635 12.3144 36.2208C11.2834 36.6074 10.3947 37.2991 9.7668 38.2037C9.13891 39.1083 8.80167 40.1828 8.80005 41.284V51.2H20.6448V48.4128H23.432C23.9865 48.4128 24.5182 48.1926 24.9102 47.8005C25.3022 47.4085 25.5224 46.8768 25.5224 46.3224C25.5224 45.768 25.3022 45.2363 24.9102 44.8443C24.5182 44.4522 23.9865 44.232 23.432 44.232ZM15.0712 30.2968C15.6225 30.2968 16.1614 30.4603 16.6197 30.7665C17.0781 31.0728 17.4353 31.5081 17.6463 32.0174C17.8572 32.5267 17.9124 33.0871 17.8049 33.6277C17.6973 34.1684 17.4319 34.665 17.0421 35.0548C16.6523 35.4446 16.1557 35.7101 15.615 35.8176C15.0743 35.9252 14.5139 35.87 14.0046 35.659C13.4953 35.4481 13.06 35.0908 12.7538 34.6325C12.4475 34.1741 12.284 33.6352 12.284 33.084C12.2847 32.345 12.5785 31.6364 13.1011 31.1138C13.6237 30.5913 14.3322 30.2974 15.0712 30.2968ZM23.4328 47.0168H19.0096C18.4877 47.0187 17.9841 46.8244 17.5988 46.4722C17.2135 46.1201 16.9746 45.636 16.9296 45.116L16.4632 39.9864L15.0752 40.1128L15.5416 45.2424C15.6164 46.1097 16.0148 46.9171 16.6577 47.5041C17.3005 48.0911 18.1407 48.4146 19.0112 48.4104H19.2512V49.804H10.1936V41.284C10.1906 40.2448 10.5902 39.2448 11.3086 38.4939C12.027 37.7429 13.0084 37.2995 14.0467 37.2565C15.085 37.2136 16.0997 37.5745 16.8776 38.2635C17.6556 38.9525 18.1364 39.9161 18.2192 40.952L18.5008 44.3576C18.5312 44.7041 18.6906 45.0266 18.9476 45.261C19.2045 45.4954 19.5402 45.6247 19.888 45.6232H23.432C23.5236 45.6232 23.6142 45.6412 23.6987 45.6762C23.7832 45.7112 23.8601 45.7626 23.9248 45.8273C23.9895 45.892 24.0408 45.9688 24.0758 46.0533C24.1108 46.1379 24.1288 46.2285 24.1288 46.32C24.1288 46.4115 24.1108 46.5021 24.0758 46.5866C24.0408 46.6712 23.9895 46.748 23.9248 46.8127C23.8601 46.8774 23.7832 46.9287 23.6987 46.9637C23.6142 46.9988 23.5236 47.0168 23.432 47.0168H23.4328Z" fill="#FFBB00"/>
<path d="M36.7329 33.2C36.8057 33.04 36.8721 32.88 36.9321 32.72L38.7609 32.22V28.3712L36.9345 27.8712C36.8745 27.7112 36.8081 27.5512 36.7353 27.3912L37.6761 25.7424L36.5681 24.64C36.6338 24.442 36.6686 24.235 36.6713 24.0264C36.6703 23.6512 36.5678 23.2833 36.3747 22.9617C36.1816 22.64 35.9051 22.3765 35.5745 22.1992L37.2777 18.8C37.6578 18.0351 37.9048 17.2111 38.0081 16.3632H39.0641L41.5489 20.5048L43.8473 16.6728C43.9199 16.5543 44.0292 16.4627 44.1584 16.4118C44.2877 16.3609 44.4301 16.3534 44.564 16.3906C44.6979 16.4277 44.8161 16.5074 44.9007 16.6177C44.9853 16.7279 45.0317 16.8627 45.0329 17.0016V21.9376H46.4265V17.0016C46.4267 16.5572 46.2812 16.125 46.0122 15.7713C45.7432 15.4175 45.3656 15.1618 44.9373 15.0432C44.509 14.9246 44.0537 14.9498 43.6411 15.1148C43.2284 15.2798 42.8813 15.5756 42.6529 15.9568L41.5489 17.7968L39.8529 14.968H38.0401C37.9142 13.0805 37.0764 11.3112 35.6961 10.0178C34.3157 8.72428 32.4958 8.0031 30.6041 8H30.1969C28.3052 8.0031 26.4853 8.72428 25.105 10.0178C23.7246 11.3112 22.8868 13.0805 22.7609 14.968H20.9481L19.2545 17.7936L18.1505 15.9536C17.9226 15.5712 17.5753 15.2742 17.1621 15.1084C16.7489 14.9426 16.2927 14.9172 15.8637 15.036C15.4346 15.1548 15.0564 15.4113 14.7874 15.766C14.5183 16.1207 14.3733 16.554 14.3745 16.9992V21.9352H15.7681V16.9992C15.7695 16.8603 15.8161 16.7257 15.9007 16.6156C15.9854 16.5055 16.1036 16.4259 16.2374 16.3889C16.3713 16.3518 16.5136 16.3593 16.6428 16.4103C16.772 16.4612 16.8811 16.5528 16.9537 16.6712L19.2545 20.5032L21.7345 16.3616H22.7905C22.8937 17.2095 23.1407 18.0336 23.5209 18.7984L25.2217 22.2C24.8917 22.3776 24.6157 22.6411 24.4231 22.9626C24.2305 23.284 24.1283 23.6516 24.1273 24.0264C24.1301 24.2353 24.1649 24.4425 24.2305 24.6408L23.1265 25.7464L24.0673 27.3952C23.9945 27.5552 23.9281 27.7152 23.8681 27.8752L22.0393 28.3744V32.2248L23.8681 32.724C23.9281 32.884 23.9953 33.044 24.0673 33.204L23.1265 34.8472L25.8465 37.5672L27.4945 36.6296C27.6545 36.7024 27.8145 36.7688 27.9745 36.8288L28.4737 38.6576H32.3241L32.8233 36.8288C32.9833 36.7688 33.1433 36.7016 33.3033 36.6296L34.9521 37.5704L37.6721 34.8504L36.7329 33.2ZM33.1873 30.2976C33.1875 30.6979 33.1014 31.0935 32.935 31.4575C32.7685 31.8216 32.5257 32.1455 32.2228 32.4073C31.92 32.669 31.5644 32.8625 31.1801 32.9745C30.7958 33.0865 30.3919 33.1145 29.9958 33.0564C29.5998 32.9983 29.2209 32.8556 28.8849 32.638C28.5489 32.4204 28.2638 32.133 28.0489 31.7953C27.8339 31.4577 27.6942 31.0777 27.6393 30.6812C27.5844 30.2847 27.6155 29.881 27.7305 29.4976C28.5229 30.0198 29.4511 30.2982 30.4001 30.2982C31.3491 30.2982 32.2773 30.0198 33.0697 29.4976C33.1476 29.7569 33.1872 30.0261 33.1873 30.2968V30.2976ZM26.2193 23.3296H34.5809C34.7657 23.3296 34.943 23.403 35.0736 23.5337C35.2043 23.6644 35.2777 23.8416 35.2777 24.0264C35.2777 24.2112 35.2043 24.3884 35.0736 24.5191C34.943 24.6498 34.7657 24.7232 34.5809 24.7232H26.2193C26.0345 24.7232 25.8573 24.6498 25.7266 24.5191C25.5959 24.3884 25.5225 24.2112 25.5225 24.0264C25.5225 23.8416 25.5959 23.6644 25.7266 23.5337C25.8573 23.403 26.0345 23.3296 26.2193 23.3296ZM30.4001 28.904C29.5974 28.9028 28.8196 28.6249 28.1978 28.1173C27.576 27.6096 27.1482 26.9031 26.9865 26.1168H33.8145C33.6526 26.9031 33.2246 27.6095 32.6027 28.117C31.9808 28.6246 31.2029 28.9022 30.4001 28.9032V28.904ZM24.1289 15.464C24.1308 13.8555 24.7707 12.3134 25.9081 11.1759C27.0455 10.0385 28.5876 9.39871 30.1961 9.3968H30.6033C31.6376 9.39684 32.6547 9.66126 33.5581 10.1649C34.4615 10.6686 35.2211 11.3949 35.7649 12.2747C36.3086 13.1546 36.6185 14.1588 36.665 15.192C36.7114 16.2253 36.4931 17.2533 36.0305 18.1784L34.1497 21.9384H31.0945V18.3528C31.7514 18.1832 32.3238 17.7799 32.7045 17.2184C33.0853 16.6569 33.2482 15.9759 33.1627 15.3029C33.0772 14.6299 32.7492 14.0112 32.2402 13.5628C31.7312 13.1143 31.0761 12.8669 30.3977 12.8669C29.7193 12.8669 29.0642 13.1143 28.5552 13.5628C28.0462 14.0112 27.7182 14.6299 27.6327 15.3029C27.5473 15.9759 27.7102 16.6569 28.0909 17.2184C28.4716 17.7799 29.0441 18.1832 29.7009 18.3528V21.936H26.6505L24.7697 18.176C24.3497 17.3324 24.1307 16.4031 24.1297 15.4608L24.1289 15.464ZM30.4001 17.064C30.1245 17.064 29.8551 16.9823 29.6259 16.8291C29.3967 16.676 29.2181 16.4584 29.1126 16.2037C29.0071 15.9491 28.9795 15.6689 29.0333 15.3985C29.0871 15.1282 29.2198 14.8799 29.4147 14.685C29.6096 14.4901 29.8579 14.3573 30.1282 14.3036C30.3986 14.2498 30.6788 14.2774 30.9334 14.3829C31.1881 14.4884 31.4057 14.667 31.5589 14.8962C31.712 15.1253 31.7937 15.3948 31.7937 15.6704C31.7918 16.0389 31.6442 16.3917 31.3831 16.6517C31.122 16.9118 30.7686 17.058 30.4001 17.0584V17.064ZM34.7201 35.8392L33.3409 35.0528L33.0025 35.2312C32.6972 35.3939 32.3775 35.5278 32.0473 35.6312L31.6817 35.744L31.2649 37.272H29.5385L29.1201 35.744L28.7545 35.6312C28.4241 35.5279 28.104 35.394 27.7985 35.2312L27.4609 35.0528L26.0825 35.8384L24.8633 34.62L25.6497 33.2408L25.4713 32.9024C25.3086 32.5971 25.1747 32.2773 25.0713 31.9472L24.9585 31.5816L23.4313 31.1648V29.4352L24.9593 29.0168L25.0721 28.6512C25.1754 28.3208 25.3093 28.0007 25.4721 27.6952L25.6505 27.3576L24.8649 25.9792L25.0737 25.7704C25.2257 25.8678 25.3898 25.945 25.5617 26C25.6707 26.9195 26.0404 27.7886 26.6273 28.5048C26.3234 29.1421 26.1858 29.846 26.2274 30.5508C26.269 31.2556 26.4884 31.9384 26.8651 32.5355C27.2419 33.1327 27.7638 33.6246 28.382 33.9656C29.0003 34.3065 29.6949 34.4853 30.4009 34.4853C31.107 34.4853 31.8015 34.3065 32.4198 33.9656C33.0381 33.6246 33.5599 33.1327 33.9367 32.5355C34.3135 31.9384 34.5329 31.2556 34.5745 30.5508C34.616 29.846 34.4785 29.1421 34.1745 28.5048C34.7613 27.7885 35.131 26.9194 35.2401 26C35.412 25.9448 35.576 25.8676 35.7281 25.7704L35.9369 25.9792L35.1513 27.36L35.3297 27.6976C35.4923 28.0032 35.6263 28.3232 35.7297 28.6536L35.8425 29.0192L37.3705 29.4376V31.1616L35.8425 31.5792L35.7297 31.9448C35.6264 32.275 35.4925 32.5947 35.3297 32.9L35.1513 33.2384L35.9377 34.6176L34.7201 35.8392Z" fill="#FFBB00"/>
<path d="M45.032 26.116H46.4256V27.5096H45.032V26.116Z" fill="#FFBB00"/>
<path d="M45.032 23.3288H46.4256V24.7224H45.032V23.3288Z" fill="#FFBB00"/>
<path d="M14.3745 26.116H15.7681V27.5096H14.3745V26.116Z" fill="#FFBB00"/>
<path d="M14.3745 23.3288H15.7681V24.7224H14.3745V23.3288Z" fill="#FFBB00"/>
</svg>
