<svg width="23" height="27" viewBox="0 0 23 27" fill="none" xmlns="http://www.w3.org/2000/svg">
<path d="M11.0999 26.4172C10.9771 26.4178 10.8553 26.3939 10.7418 26.3468C10.6283 26.2998 10.5253 26.2305 10.4389 26.1432L3.25595 18.9562C1.70291 17.4041 0.645066 15.4262 0.216224 13.2729C-0.212619 11.1195 0.00680375 8.88731 0.846738 6.85865C1.68667 4.83 3.10938 3.09602 4.93492 1.87604C6.76045 0.656057 8.90679 0.00488281 11.1024 0.00488281C13.2981 0.00488281 15.4444 0.656057 17.27 1.87604C19.0955 3.09602 20.5182 4.83 21.3582 6.85865C22.1981 8.88731 22.4175 11.1195 21.9887 13.2729C21.5598 15.4262 20.502 17.4041 18.9489 18.9562L11.7639 26.1412C11.6776 26.2285 11.5746 26.2978 11.4611 26.3448C11.3476 26.3919 11.2258 26.4158 11.1029 26.4152L11.0999 26.4172ZM11.0999 1.87915C9.27536 1.88085 7.49219 2.42323 5.97568 3.43779C4.45917 4.45235 3.27734 5.89357 2.57946 7.57942C1.88158 9.26527 1.69896 11.1201 2.05465 12.9097C2.41035 14.6993 3.28842 16.3433 4.57795 17.6342L11.0999 24.1562L17.6239 17.6322C18.9129 16.3411 19.7904 14.6971 20.1457 12.9076C20.5009 11.1182 20.3179 9.26363 19.6199 7.57811C18.9218 5.89259 17.74 4.4517 16.2236 3.4374C14.7072 2.42309 12.9243 1.88085 11.0999 1.87915Z" fill="#FF5E14"/>
<path d="M11.1018 15.2271C10.1766 15.2271 9.27217 14.9527 8.50287 14.4387C7.73358 13.9247 7.13399 13.1941 6.77992 12.3393C6.42585 11.4845 6.33322 10.5439 6.51372 9.63646C6.69422 8.72902 7.13975 7.89548 7.79398 7.24125C8.44821 6.58702 9.28175 6.14148 10.1892 5.96098C11.0966 5.78048 12.0372 5.87312 12.892 6.22719C13.7468 6.58125 14.4774 7.18085 14.9914 7.95014C15.5055 8.71943 15.7798 9.62388 15.7798 10.5491C15.7798 11.7898 15.287 12.9796 14.4097 13.8569C13.5324 14.7342 12.3425 15.2271 11.1018 15.2271ZM11.1018 7.7421C10.5467 7.7421 10.004 7.90672 9.54234 8.21516C9.08074 8.5236 8.72096 8.96199 8.5085 9.4749C8.29604 9.98782 8.24046 10.5522 8.34877 11.0967C8.45707 11.6412 8.72442 12.1414 9.11698 12.5339C9.50955 12.9265 10.0097 13.1939 10.5542 13.3022C11.0987 13.4105 11.6631 13.3549 12.176 13.1424C12.6889 12.93 13.1273 12.5702 13.4358 12.1086C13.7442 11.647 13.9088 11.1043 13.9088 10.5491C13.9088 9.80463 13.6131 9.09066 13.0867 8.56425C12.5603 8.03783 11.8463 7.7421 11.1018 7.7421Z" fill="#FF5E14"/>
</svg>
